#!OML:ASF E:/inclinewalkrobotboard/Project1/Captureday1/Session1/subject1.ASF
:FULLY-SPECIFIED
:DEGREES
188
root 0 0 0 1.2582225883764604 -3.591721336214514 1.8997207554121127
lowerback 12.042913830101337 0.8482639895103017 -0.1076360109570661
upperback -4.409482018398929 1.0653093282831807 -0.6024502067058878
thorax -11.573046656481349 0.4872453035049265 -0.8027547799012449
lowerneck -5.961944114963775 1.7282897555883407 4.699891681757232
upperneck 18.39372576865612 3.287118144180999 -8.46862657978059
head 6.731554872530246 1.212745775761837 -3.252895248607927
rclavicle -3.764570996545553E-16 -2.111700181289086E-15
rhumerus 20.790191967606972 14.834139604391398 -47.295257541872836
rradius 72.875458188406
rwrist 27.417613001041403
rhand -34.55803762928767 -57.65171071688601
rfingers 7.12502000000002
rthumb -7.751555560735907 -87.60799958131332
lclavicle -2.2009217602627324E-15 4.177238257186016E-16
lhumerus 21.88998495218045 -13.058328494222215 44.451193127563826
lradius 70.73861465041134
lwrist -22.50250001130854
lhand -45.09579596744456 -70.8414089683009
lfingers 7.125020000000016
lthumb -17.85741923062013 -41.89824105897624
rfemur -25.61669446501014 -2.3709951502104136 16.876797036107913
rtibia 54.52093780078625
rfoot -31.338138896098705 -17.853771972756242
rtoes -19.03055033358633
lfemur -27.990991572007488 2.8331540865857714 -18.34325474669435
ltibia 54.78812524586813
lfoot -33.217745470347985 -3.53264992107931
ltoes -20.652486021402346
189
root 0 0 0 1.2582428666856225 -3.5918770853915927 1.8996266264318828
lowerback 12.042857368572694 0.8482933994820115 -0.10760585235904496
upperback -4.4095033053994985 1.0653508549914235 -0.602432912056185
thorax -11.573036825364557 0.4872656221742716 -0.8027625960176108
lowerneck -5.961878259915466 1.7283235489590727 4.699915457799966
upperneck 18.393745032242343 3.287165961768568 -8.46868697588418
head 6.731547132084479 1.2127624695118788 -3.2529130323787854
rclavicle -3.7658628777171604E-16 -2.112076977730312E-15
rhumerus 20.789826707209038 14.83347426829763 -47.29472240470605
rradius 72.87527781090932
rwrist 27.418151876438614
rhand -34.55811383564486 -57.65193852154424
rfingers 7.12502000000002
rthumb -7.751612688104293 -87.60827667526007
lclavicle -2.2025647936537548E-15 4.1931020386726907E-16
lhumerus 21.890177487159562 -13.058261124332503 44.45090973700671
lradius 70.73875187019495
lwrist -22.502731284389178
lhand -45.09590709540098 -70.84216717273016
lfingers 7.125020000000016
lthumb -17.85751183930772 -41.89910588961234
rfemur -25.615130652785083 -2.3710678002178565 16.87693902038403
rtibia 54.520595106831905
rfoot -31.338652029057926 -17.852805496799846
rtoes -19.03450503222163
lfemur -27.989055189543976 2.831921664717848 -18.341772853254213
ltibia 54.784564597199974
lfoot -33.21830188260504 -3.5323521545131134
ltoes -20.65801776609605
190
root 0 0 0 1.258179713763261 -3.59182387027853 1.8995996714481298
lowerback 12.0427858943253 0.8483036103935616 -0.10760369532797831
upperback -4.409498638679336 1.0653626097259208 -0.6024222592760818
thorax -11.572993106456462 0.48727162214751096 -0.8027520965218318
lowerneck -5.961826680993867 1.7283557615747152 4.699978876894028
upperneck 18.39380550405658 3.2872144796109275 -8.468774154462658
head 6.731556599441468 1.2127805648573826 -3.252944047923399
rclavicle -3.778007664008317E-16 -2.1124973237579543E-15
rhumerus 20.789195853520745 14.8325900750685 -47.294119235604875
rradius 72.87480182475656
rwrist 27.41880965026796
rhand -34.55815294661621 -57.65216633981494
rfingers 7.12502000000002
rthumb -7.751660181990019 -87.60843013720535
lclavicle -2.203107406919122E-15 4.1909903372192397E-16
lhumerus 21.89005186360388 -13.057899184986644 44.45076113815611
lradius 70.73856863416981
lwrist -22.502943877083617
lhand -45.095925399267955 -70.84258810944246
lfingers 7.125020000000016
lthumb -17.857533157351693 -41.89954970561449
rfemur -25.613666964232653 -2.3712955119473094 16.876730501559976
rtibia 54.52166727959861
rfoot -31.33724494855675 -17.851521128820377
rtoes -19.03635299740916
lfemur -27.98728191894257 2.8319389528349297 -18.342146984925318
ltibia 54.78539726624078
lfoot -33.21654264724946 -3.534278447698183
ltoes -20.659311360597357
191
root 0 0 0 1.2576492629353582 -3.5911855646081996 1.8995508171497875
lowerback 12.042961821495608 0.8481608807376089 -0.10757691266446578
upperback -4.409418640130468 1.0652198553997632 -0.6023719449873178
thorax -11.573014810000673 0.48718657054741965 -0.802739278500183
lowerneck -5.962157409063608 1.728178252419082 4.69992919591231
upperneck 18.393739785063655 3.286946319957554 -8.468625398099956
head 6.731605844822232 1.2126616137565835 -3.2529323142392554
rclavicle -3.867578766565998E-16 -2.0995761679904553E-15
rhumerus 20.787383004371314 14.829724888038934 -47.29460284011944
rradius 72.8755674811683
rwrist 27.41853936446784
rhand -34.55933041170967 -57.65183438596858
rfingers 7.12502000000002
rthumb -7.752681577887071 -87.60702023129207
lclavicle -2.236380572858347E-15 4.301113043587169E-16
lhumerus 21.89074582225753 -13.061174316135956 44.452452716411614
lradius 70.74026374239801
lwrist -22.50048844747856
lhand -45.09546377211636 -70.83704965155339
lfingers 7.125020000000016
lthumb -17.856933959836837 -41.89381558421644
rfemur -25.6146439765172 -2.3758042633414327 16.87873597285983
rtibia 54.52898438488762
rfoot -31.33189382068662 -17.850020020026992
rtoes -19.015828633931598
lfemur -27.99459370638208 2.8365577355868354 -18.347652204660104
ltibia 54.79741424305094
lfoot -33.21040447229404 -3.5363048036702915
ltoes -20.63914840977231
192
root 0 0 0 1.2581895106672305 -3.591669818199575 1.8997684449385734
lowerback 12.042905719018814 0.8482634387429455 -0.10767122616230707
upperback -4.409474722613933 1.065303055723111 -0.6024608708079752
thorax -11.573036867651503 0.48724245492069834 -0.8027443291861069
lowerneck -5.961946636511208 1.7282883683499801 4.699912126516173
upperneck 18.393728721880326 3.2871151887778245 -8.468644686386847
head 6.731556015979818 1.212744753587152 -3.252905064198923
rclavicle -3.765768471081545E-16 -2.1118579450949184E-15
rhumerus 20.789817857301728 14.833582305793554 -47.294878858085895
rradius 72.87516734937522
rwrist 27.418030003947152
rhand -34.55805641750943 -57.651814016498754
rfingers 7.12502000000002
rthumb -7.7515799053581045 -87.60809058852625
lclavicle -2.2009504761015594E-15 4.176020973277554E-16
lhumerus 21.889846005093666 -13.057959332609316 44.45107626428538
lradius 70.73838484976682
lwrist -22.502728488885793
lhand -45.095780151077115 -70.84174435216431
lfingers 7.125020000000016
lthumb -17.85740620871278 -41.89856678894378
rfemur -25.6165956135784 -2.371056488706871 16.876538720033416
rtibia 54.52148229830929
rfoot -31.336954301137272 -17.853722082877308
rtoes -19.02983216982171
lfemur -27.991107704794594 2.8336676022285756 -18.344114497488274
ltibia 54.78980399935695
lfoot -33.217582280489076 -3.5332969073029608
ltoes -20.650881196895597
193
root 0 0 0 1.2582377901012625 -3.5918446231002212 1.899652993842297
lowerback 12.042867468192057 0.8482882531812366 -0.10761931083199228
upperback -4.409499945249936 1.0653424498399848 -0.6024386589947307
thorax -11.573039722390382 0.48726150420673275 -0.8027595887571459
lowerneck -5.961892830326894 1.7283170020779808 4.699912709165705
upperneck 18.39374020899654 3.2871559603594633 -8.468676491437735
head 6.731548409122237 1.2127588359267842 -3.2529105148602673
rclavicle -3.766243906245602E-16 -2.11209601233983E-15
rhumerus 20.789734399498514 14.833344192856538 -47.294648174809836
rradius 72.8752059647301
rwrist 27.418237000068924
rhand -34.558116245911066 -57.6519454615595
rfingers 7.12502000000002
rthumb -7.751616585690202 -87.60827669123418
lclavicle -2.2025597348287964E-15 4.1930834031926454E-16
lhumerus 21.890134677508627 -13.058179958986122 44.450899279002485
lradius 70.7386904148843
lwrist -22.50277407100412
lhand -45.0959039048668 -70.84223414954647
lfingers 7.125020000000016
lthumb -17.85750950771938 -41.8991638035518
rfemur -25.615363420112942 -2.371056006833599 16.876872701035847
rtibia 54.520646345958234
rfoot -31.338422026911672 -17.852943788682154
rtoes -19.033931167603043
lfemur -27.989233145849965 2.8321175632252693 -18.34205754694546
ltibia 54.78514300549701
lfoot -33.2183490274317 -3.5324350236712685
ltoes -20.65730141885893
194
root 0 0 0 1.258182804991495 -3.591812650790553 1.8996098278618878
lowerback 12.042793819259145 0.8483005039633845 -0.10760747163991657
upperback -4.409497601691133 1.0653582463067888 -0.602424489270179
thorax -11.57299657305941 0.48726946716413705 -0.8027516353185209
lowerneck -5.961835991735392 1.7283516374116028 4.699973420481251
upperneck 18.39380160353778 3.2872083235854435 -8.468764031555617
head 6.731557187711812 1.2127783341362686 -3.2529406667213268
rclavicle -3.7779495910081775E-16 -2.1124785368661757E-15
rhumerus 20.789201462979293 14.832602415829095 -47.29413600479525
rradius 72.87480594124813
rwrist 27.41879331935607
rhand -34.5581524495205 -57.652155023211115
rfingers 7.12502000000002
rthumb -7.751659699858562 -87.60841714953264
lclavicle -2.203093330512958E-15 4.191213470885716E-16
lhumerus 21.89004619269157 -13.057905423270634 44.45077373745313
lradius 70.73856497369428
lwrist -22.502935085276533
lhand -45.09592643791655 -70.84257988685216
lfingers 7.125020000000016
lthumb -17.857534277876837 -41.899536610755135
rfemur -25.613846268281648 -2.371274445609094 16.876725676659028
rtibia 54.52160254851246
rfoot -31.337288757565037 -17.851632764584018
rtoes -19.03608239999924
lfemur -27.987405254888223 2.831987642158026 -18.34219653490957
ltibia 54.78549296634025
lfoot -33.216630153510295 -3.534202887598894
ltoes -20.65907106656686
